<?xml version="1.0" encoding="utf-8"?>
<!-- Generator: Adobe Illustrator 21.0.0, SVG Export Plug-In . SVG Version: 6.00 Build 0)  -->
<svg version="1.1" id="图层_1" xmlns="http://www.w3.org/2000/svg" xmlns:xlink="http://www.w3.org/1999/xlink" x="0px" y="0px"
	 viewBox="0 0 239.7 193.7" style="enable-background:new 0 0 239.7 193.7;" xml:space="preserve">
<style type="text/css">
	.st0{fill:#EFEFEF;}
</style>
<g>
	<g>
		<path d="M154.2,193.7H14.9c-6.6,0-12-5.4-12-12v-68c0-6.6,5.4-12,12-12h139.3c6.6,0,12,5.4,12,12v68
			C166.2,188.3,160.8,193.7,154.2,193.7z"/>
	</g>
	<g>
		<path d="M36.4,106.8c-19.9,0-36-16.1-36-36s16.1-36,36-36s36,16.1,36,36S56.2,106.8,36.4,106.8z M36.4,39.8c-17.1,0-31,13.9-31,31
			s13.9,31,31,31s31-13.9,31-31S53.4,39.8,36.4,39.8z"/>
	</g>
	<g>
		<path d="M119.3,104.2c-28.7,0-52-23.3-52-52s23.3-52,52-52s52,23.3,52,52S148,104.2,119.3,104.2z M119.3,5.2
			c-25.9,0-47,21.1-47,47s21.1,47,47,47s47-21.1,47-47S145.2,5.2,119.3,5.2z"/>
	</g>
	<g>
		<circle cx="144.9" cy="37.3" r="21.2"/>
	</g>
	<g>
		<circle cx="61" cy="69.8" r="8.8"/>
	</g>
	<g>
		<polygon points="146.9,142.3 208.7,177.9 208.7,106.6 		"/>
		<path d="M209.2,178.8l-63.2-36.5l63.2-36.5V178.8z M147.9,142.3l60.2,34.8v-69.5L147.9,142.3z"/>
	</g>
	<g>
		<ellipse class="st0" cx="216.4" cy="142.3" rx="23.2" ry="38"/>
		<path d="M216.4,180.7c-13.1,0-23.7-17.3-23.7-38.5s10.6-38.5,23.7-38.5s23.7,17.3,23.7,38.5S229.5,180.7,216.4,180.7z
			 M216.4,104.8c-12.5,0-22.7,16.8-22.7,37.5s10.2,37.5,22.7,37.5c12.5,0,22.7-16.8,22.7-37.5S229,104.8,216.4,104.8z"/>
	</g>
</g>
</svg>
